<?xml version="1.0" standalone="no"?>
<!DOCTYPE svg PUBLIC "-//W3C//DTD SVG 20010904//EN"
 "http://www.w3.org/TR/2001/REC-SVG-20010904/DTD/svg10.dtd">
<svg version="1.0" xmlns="http://www.w3.org/2000/svg"
 width="670.000000pt" height="216.000000pt" viewBox="0 0 670.000000 216.000000"
 preserveAspectRatio="xMidYMid meet">

<g transform="translate(0.000000,216.000000) scale(0.100000,-0.100000)"
fill="#000000" stroke="none">
<path d="M3515 1401 c-113 -30 -159 -97 -159 -231 0 -149 62 -222 201 -236
150 -16 246 62 260 209 14 154 -64 252 -209 262 -35 2 -76 1 -93 -4z m132
-125 c26 -23 28 -29 28 -106 0 -77 -2 -83 -28 -106 -18 -15 -41 -24 -62 -24
-21 0 -44 9 -62 24 -26 23 -28 29 -28 106 0 77 2 83 28 106 18 15 41 24 62 24
21 0 44 -9 62 -24z"/>
<path d="M5545 1401 c-113 -30 -159 -97 -159 -231 0 -149 62 -222 201 -236
150 -16 246 62 260 209 14 154 -64 252 -209 262 -35 2 -76 1 -93 -4z m132
-125 c26 -23 28 -29 28 -106 0 -77 -2 -83 -28 -106 -18 -15 -41 -24 -62 -24
-21 0 -44 9 -62 24 -26 23 -28 29 -28 106 0 77 2 83 28 106 18 15 41 24 62 24
21 0 44 -9 62 -24z"/>
<path d="M2600 1170 l0 -230 65 0 65 0 0 230 0 230 -65 0 -65 0 0 -230z"/>
<path d="M2840 1170 l0 -230 65 0 64 0 3 127 3 126 84 -126 84 -127 63 0 64 0
0 230 0 230 -65 0 -64 0 -3 -127 -3 -126 -84 126 -84 127 -63 0 -64 0 0 -230z"/>
<path d="M3860 1393 c0 -5 37 -107 83 -228 l83 -220 75 -3 76 -3 85 231 85
231 -70 -3 -70 -3 -47 -150 c-26 -82 -49 -157 -52 -165 -3 -8 -24 46 -47 120
-23 74 -47 150 -52 168 l-11 32 -69 0 c-38 0 -69 -3 -69 -7z"/>
<path d="M4520 1397 c0 -2 -36 -102 -80 -221 -44 -120 -80 -222 -80 -227 0 -6
30 -9 68 -7 l67 3 9 38 10 38 85 -3 85 -3 9 -37 9 -38 74 0 74 0 -11 28 c-6
15 -41 110 -79 212 -38 102 -72 193 -75 203 -6 14 -20 17 -86 17 -43 0 -79 -2
-79 -3z m105 -187 c10 -30 20 -61 23 -67 3 -9 -10 -13 -48 -13 -39 0 -51 3
-47 13 3 7 13 41 22 76 10 34 21 58 25 54 4 -4 16 -33 25 -63z"/>
<path d="M4900 1169 l0 -231 143 4 c156 4 184 13 230 68 70 83 60 270 -18 339
-48 41 -90 51 -232 51 l-123 0 0 -231z m251 102 c20 -16 24 -30 27 -94 4 -70
2 -78 -21 -101 -20 -20 -36 -26 -72 -26 l-45 0 0 120 0 120 44 0 c28 0 52 -7
67 -19z"/>
<path d="M5930 1170 l0 -230 70 0 70 0 0 90 c0 93 3 100 44 84 9 -3 37 -44 62
-90 l46 -84 79 0 80 0 -37 68 c-20 37 -51 81 -69 98 l-32 31 32 17 c68 37 88
137 39 195 -35 42 -77 51 -241 51 l-143 0 0 -230z m254 114 c19 -7 21 -45 4
-62 -7 -7 -36 -12 -65 -12 l-53 0 0 40 0 40 49 0 c27 0 56 -3 65 -6z"/>
<path d="M355 1366 c-39 -17 -55 -37 -62 -79 -8 -50 33 -90 116 -114 71 -20
93 -41 72 -67 -27 -32 -101 -8 -101 32 0 13 -41 16 -78 6 -19 -6 -22 -11 -17
-33 14 -56 72 -91 150 -91 117 0 185 82 140 170 -15 28 -53 47 -142 70 -32 8
-43 16 -43 30 0 26 36 35 65 16 14 -9 25 -21 25 -26 0 -12 70 -13 88 -1 22 14
-13 70 -53 87 -42 17 -120 18 -160 0z"/>
<path d="M960 1340 c0 -29 1 -30 50 -30 49 0 50 1 50 30 0 29 -1 30 -50 30
-49 0 -50 -1 -50 -30z"/>
<path d="M705 1276 c-54 -24 -70 -51 -70 -122 0 -58 3 -66 32 -95 53 -54 169
-51 222 5 l22 24 -47 7 c-29 4 -50 3 -57 -4 -17 -17 -52 -13 -70 7 -10 10 -17
22 -17 25 0 4 43 7 95 7 l95 0 0 36 c0 96 -107 153 -205 110z m105 -65 c15
-30 14 -31 -40 -31 -54 0 -59 4 -33 32 21 24 60 23 73 -1z"/>
<path d="M1180 1283 c-23 -9 -60 -45 -60 -59 0 -7 18 -15 40 -19 30 -5 44 -3
56 10 20 20 69 16 69 -5 0 -10 -22 -20 -68 -32 -82 -19 -107 -39 -107 -84 0
-66 88 -96 158 -54 26 16 32 17 32 5 0 -11 12 -15 46 -15 38 0 45 3 40 16 -3
9 -6 53 -6 99 0 74 -3 87 -24 112 -21 24 -31 28 -92 30 -38 1 -76 0 -84 -4z
m110 -151 c0 -27 -34 -54 -62 -50 -37 5 -30 39 12 54 47 17 50 17 50 -4z"/>
<path d="M2038 1274 c-16 -8 -28 -10 -28 -4 0 5 -20 10 -45 10 l-45 0 0 -125
0 -125 45 0 45 0 0 69 c0 89 12 123 43 119 21 -3 22 -8 25 -95 l3 -93 49 0 50
0 0 84 c0 64 4 87 16 97 11 9 20 10 32 2 13 -8 18 -29 20 -97 l3 -86 44 0 45
0 0 105 c0 99 -2 107 -25 130 -30 31 -82 33 -116 6 -24 -19 -25 -19 -48 0 -28
23 -75 24 -113 3z"/>
<path d="M960 1144 c0 -125 -1 -136 -19 -141 -20 -5 -36 -46 -26 -63 11 -18
91 -11 116 9 23 18 24 25 27 175 l3 156 -50 0 -51 0 0 -136z"/>
<path d="M1600 1175 c0 -99 2 -107 25 -130 30 -31 82 -33 119 -4 21 17 26 18
26 5 0 -12 11 -16 45 -16 l45 0 0 125 0 125 -45 0 -45 0 0 -69 c0 -82 -12
-121 -38 -121 -34 0 -42 21 -42 107 l0 83 -45 0 -45 0 0 -105z"/>
</g>
</svg>
